<?xml version="1.0" encoding="UTF-8" standalone="no"?>
<!-- Created with Inkscape (http://www.inkscape.org/) -->

<svg
   xmlns:dc="http://purl.org/dc/elements/1.1/"
   xmlns:cc="http://creativecommons.org/ns#"
   xmlns:rdf="http://www.w3.org/1999/02/22-rdf-syntax-ns#"
   xmlns:svg="http://www.w3.org/2000/svg"
   xmlns="http://www.w3.org/2000/svg"
   xmlns:sodipodi="http://sodipodi.sourceforge.net/DTD/sodipodi-0.dtd"
   xmlns:inkscape="http://www.inkscape.org/namespaces/inkscape"
   width="32"
   height="32"
   viewBox="0 0 8.4666665 8.4666669"
   version="1.1"
   id="svg8"
   inkscape:version="0.92.1 r15371"
   sodipodi:docname="civilian-staging-transit.svg">
  <defs
     id="defs2" />
  <sodipodi:namedview
     id="base"
     pagecolor="#ffffff"
     bordercolor="#666666"
     borderopacity="1.0"
     inkscape:pageopacity="0.0"
     inkscape:pageshadow="2"
     inkscape:zoom="22.4"
     inkscape:cx="17.260624"
     inkscape:cy="12.891614"
     inkscape:document-units="mm"
     inkscape:current-layer="layer1"
     showgrid="false"
     units="px"
     inkscape:window-width="1920"
     inkscape:window-height="1017"
     inkscape:window-x="1912"
     inkscape:window-y="-8"
     inkscape:window-maximized="1" />
  <metadata
     id="metadata5">
    <rdf:RDF>
      <cc:Work
         rdf:about="">
        <dc:format>image/svg+xml</dc:format>
        <dc:type
           rdf:resource="http://purl.org/dc/dcmitype/StillImage" />
        <dc:title></dc:title>
      </cc:Work>
    </rdf:RDF>
  </metadata>
  <g
     inkscape:label="Livello 1"
     inkscape:groupmode="layer"
     id="layer1"
     transform="translate(0,-288.53331)">
    <path
       style="fill:#ffffff;fill-opacity:1;stroke:none;stroke-width:1.07887828;stroke-opacity:1"
       d="M 16.097656 1.5273438 C 13.921615 1.5170447 11.700591 2.0189505 9.5625 3.0546875 C 7.225247 4.1875253 4.1734131 7.2581565 3.046875 9.6113281 C 1.0896697 13.699265 1.035158 17.913058 2.8886719 21.931641 C 3.6904133 23.669203 4.97543 25.625528 5.1816406 25.419922 C 5.2368709 25.379481 5.3663513 23.634188 5.46875 21.578125 L 5.46875 21.576172 C 5.6130788 18.673495 5.7510984 17.685891 6.0878906 17.171875 L 6.5234375 16.511719 L 15.617188 16.511719 L 24.712891 16.511719 L 25.208984 17.320312 C 25.931345 18.501566 26.501049 20.6438 26.517578 22.240234 C 26.525175 23.006231 26.615947 24.082563 26.71875 24.630859 L 26.90625 25.630859 L 27.945312 24.041016 C 31.903948 17.995812 31.152606 10.818612 26.03125 5.7558594 C 23.229094 2.9854893 19.724392 1.5445089 16.097656 1.5273438 z M 15.714844 5.0195312 C 15.883652 5.008462 16.062034 5.1089091 16.339844 5.3105469 C 16.720416 5.5928776 16.76245 6.0887205 16.701172 9.7460938 L 16.630859 13.867188 L 15.960938 13.947266 C 15.494614 13.987707 15.208927 13.866103 15.023438 13.527344 L 15.023438 13.525391 C 14.869433 13.24306 14.757812 11.494552 14.757812 9.40625 C 14.757812 6.4471445 14.829486 5.7131321 15.150391 5.390625 C 15.387684 5.1527604 15.546035 5.0306005 15.714844 5.0195312 z M 24.904297 5.0390625 C 25.065755 5.0291123 25.228272 5.1195518 25.404297 5.2949219 C 25.959675 5.8512683 25.780085 6.6379508 24.181641 10.623047 L 22.878906 13.873047 L 21.935547 13.953125 C 21.058779 14.033629 20.965655 13.963046 20.611328 13.117188 L 20.611328 13.115234 C 19.757298 11.071266 18.005859 6.201689 18.005859 5.8710938 C 18.005859 5.4195536 18.854149 4.9570167 19.341797 5.1464844 C 19.547403 5.2269883 20.200198 6.6737213 20.794922 8.375 C 21.388478 10.072235 21.928468 11.406313 21.994141 11.341797 C 22.059851 11.261293 22.57175 9.9148318 23.132812 8.3183594 C 23.944441 6.0083216 24.419922 5.0689131 24.904297 5.0390625 z M 9.2734375 5.1367188 C 10.482609 5.036565 11.712651 5.430983 12.564453 6.2851562 C 13.527453 7.2486712 13.467215 8.3518492 12.445312 8.46875 C 12.067159 8.5091909 11.757812 8.4435229 11.757812 8.3085938 C 11.757812 8.1876489 11.483515 7.7788503 11.146484 7.4160156 C 10.415455 6.6258676 9.0996277 6.526723 8.2753906 7.1757812 C 7.544724 7.7684112 7.174888 9.4924111 7.5117188 10.742188 C 7.8120627 11.858925 8.5568246 12.484375 9.5820312 12.484375 C 10.57672 12.484375 11.140897 12.122381 11.498047 11.263672 C 12.047175 9.9373223 13.263586 9.9812303 13.25 11.34375 C 13.233635 12.960367 11.810123 14 9.609375 14 C 8.4402443 14.000831 7.885379 13.878999 7.234375 13.435547 L 7.234375 13.445312 C 4.8005274 11.824689 4.783824 7.4889683 7.2050781 5.8574219 C 7.8296963 5.4356266 8.5479346 5.196811 9.2734375 5.1367188 z M 7.0410156 17.759766 C 6.5615512 17.759766 6.2720755 18.387095 6.265625 19.443359 C 6.2627949 19.878761 6.404513 20.007812 6.8867188 20.007812 C 7.4605198 20.007812 7.5116783 19.927096 7.5117188 18.882812 C 7.5117188 17.947531 7.4322323 17.759766 7.0410156 17.759766 z M 9.6347656 17.759766 C 8.7647713 17.759766 8.7597656 17.761805 8.7597656 18.882812 C 8.7597656 20.003594 8.764862 20.007812 9.6347656 20.007812 C 10.50476 20.007812 10.509766 20.00382 10.509766 18.882812 C 10.509766 17.766113 10.504709 17.759766 9.6347656 17.759766 z M 11.759766 17.759766 L 11.759766 18.882812 L 11.759766 20.007812 L 12.757812 20.007812 L 13.757812 20.007812 L 13.757812 18.882812 L 13.757812 17.759766 L 12.757812 17.759766 L 11.759766 17.759766 z M 14.757812 17.759766 L 14.757812 18.882812 L 14.757812 20.007812 L 15.757812 20.007812 L 16.755859 20.007812 L 16.755859 18.882812 L 16.755859 17.759766 L 15.757812 17.759766 L 14.757812 17.759766 z M 18.005859 17.759766 L 18.005859 18.882812 L 18.005859 20.007812 L 19.005859 20.007812 L 20.005859 20.007812 L 20.005859 18.882812 L 20.005859 17.759766 L 19.005859 17.759766 L 18.005859 17.759766 z M 21.003906 17.759766 L 21.003906 18.882812 L 21.003906 20.007812 L 22.003906 20.007812 L 23.003906 20.007812 L 23.003906 18.882812 L 23.003906 17.759766 L 22.003906 17.759766 L 21.003906 17.759766 z M 24.492188 17.759766 C 24.080372 17.759766 24.003906 17.919411 24.003906 18.882812 C 24.003906 19.906838 24.056939 20.007812 24.613281 20.007812 C 24.948699 20.007812 25.281836 19.927586 25.353516 19.806641 L 25.353516 19.798828 C 25.425278 19.677883 25.371028 19.177753 25.232422 18.673828 C 25.051813 18.020726 24.841435 17.759766 24.492188 17.759766 z M 21.771484 24.986328 C 21.39696 24.986328 21.253906 25.149072 21.253906 25.572266 C 21.253906 26.703665 22.074493 26.780668 22.208984 25.65625 C 22.272284 25.124093 22.184326 24.986328 21.771484 24.986328 z M 8.9941406 25.037109 C 8.8263643 25.068845 8.7597656 25.23977 8.7597656 25.566406 C 8.7597656 25.8888 8.8373036 26.245041 8.9316406 26.341797 C 9.2545635 26.664191 9.6347656 26.337273 9.6347656 25.736328 C 9.6347656 25.373493 9.4688663 25.103166 9.1972656 25.050781 C 9.1176442 25.030655 9.0500661 25.026531 8.9941406 25.037109 z M 10.859375 25.751953 L 10.537109 26.642578 C 9.9575835 28.243095 8.5730662 28.232066 7.8984375 26.617188 C 7.564229 25.814945 7.4545371 25.749624 6.4609375 25.761719 L 5.3867188 25.773438 L 6.6210938 26.90625 C 9.9294915 29.950055 14.872331 31.152417 19.357422 30.005859 L 19.357422 30.007812 C 21.710438 29.407094 23.937615 28.250993 25.474609 26.835938 L 26.626953 25.775391 L 25.085938 25.763672 C 23.549539 25.752333 23.542382 25.760395 23.085938 26.691406 C 22.686821 27.505781 22.516278 27.626953 21.755859 27.626953 C 20.992498 27.626953 20.829335 27.505781 20.443359 26.691406 L 20.001953 25.751953 L 15.429688 25.751953 L 10.859375 25.751953 z "
       id="path4487"
       transform="matrix(0.26458333,0,0,0.26458333,0,288.53331)" />
    <path
       style="fill:#000000;stroke-width:0.06611662"
       d="m 0.03296538,296.92846 c -0.024533,-0.0427 0.083093,-0.20267 0.23913531,-0.3616 l 0.28381791,-0.28906 -0.1603942,-0.064 c -0.14891702,-0.0533 -0.12654902,-0.0747 0.31227638,-0.28907 L 1.1804715,295.69646 0.95893609,295.41593 C 0.6181051,294.985 0.421583,294.617 0.23412749,294.05892 c -0.42652681,-1.27061 -0.21051681,-2.6449 0.59142229,-3.76255 l 0.35002572,-0.48746 -0.47022801,-0.21227 c -0.43630811,-0.19733 -0.4586547,-0.2176 -0.30983381,-0.2752 l 0.1603942,-0.064 -0.27609519,-0.2816 c -0.25238331,-0.25706 -0.34803101,-0.4416 -0.22901271,-0.4416 0.02592,0 0.1764262,0.12694 0.3345164,0.28054 0.25613791,0.25066 0.29455922,0.2688 0.35290572,0.16533 0.036053,-0.064 0.087146,-0.11627 0.11358898,-0.11627 0.026453,0 0.13116761,0.19094 0.23267132,0.42347 l 0.1845435,0.42346 0.49202,-0.35306 c 1.5484415,-1.11093 3.6117777,-1.07051 5.0841853,0.096 0.1381329,0.10986 0.2727566,0.19946 0.2991567,0.19946 0.026347,0 0.1304528,-0.18346 0.2312419,-0.40853 0.1668155,-0.37226 0.1911675,-0.39786 0.271658,-0.28693 0.08288,0.11307 0.1073597,0.10667 0.3939508,-0.16107 0.22401,-0.20693 0.3251404,-0.2624 0.3789855,-0.208 0.053866,0.0533 -0.00427,0.15254 -0.2178233,0.37014 -0.2773751,0.28266 -0.2852684,0.3008 -0.1654714,0.38933 0.1169595,0.0853 0.09664,0.10666 -0.2898021,0.30186 -0.4067826,0.2048 -0.4133321,0.21334 -0.3092683,0.3552 0.9547812,1.30219 1.2380433,2.59882 0.8518482,3.8993 -0.1387408,0.4672 -0.5052038,1.18154 -0.7479125,1.45792 -0.1095145,0.12479 -0.199114,0.25386 -0.199114,0.28693 0,0.032 0.2008312,0.15893 0.446292,0.28053 0.4158173,0.20587 0.4353375,0.22507 0.2858871,0.28053 l -0.1603942,0.064 0.276106,0.2816 c 0.1518502,0.15467 0.2760953,0.31787 0.2760953,0.3616 0,0.16213 -0.1944957,0.0747 -0.4242017,-0.1952 -0.1298876,-0.15147 -0.2468258,-0.26346 -0.2598713,-0.24746 -0.013012,0.0107 -0.055573,0.0853 -0.094506,0.15893 -0.062507,0.11626 -0.09632,0.0747 -0.2911459,-0.35413 l -0.2203831,-0.48534 -0.3199887,0.26454 c -0.7273364,0.60159 -1.615299,0.90239 -2.6544704,0.90133 -0.6211821,-10e-4 -0.8044458,-0.032 -1.2562152,-0.18347 -0.5632304,-0.1952 -1.0481571,-0.464 -1.4157849,-0.78506 l -0.2256847,-0.19734 -0.1892368,0.41707 c -0.22956731,0.5056 -0.23272472,0.5088 -0.336127,0.368 -0.0752,-0.10667 -0.1065597,-0.0853 -0.34331641,0.1536 -0.27651121,0.28266 -0.33157241,0.30933 -0.40279361,0.19413 z M 5.1214089,296.473 c 0.6225688,-0.15894 1.2121994,-0.46507 1.6188626,-0.83947 L 7.0451348,295.353 6.6373491,295.35 c -0.4065055,-0.003 -0.4081695,-0.001 -0.5289372,0.24533 -0.1055997,0.21547 -0.1508475,0.24747 -0.3520417,0.24747 -0.2019728,0 -0.2455031,-0.032 -0.3476257,-0.24747 L 5.2919982,295.34692 H 4.0826523 2.8732988 l -0.085226,0.23573 c -0.1533329,0.42347 -0.5199133,0.42027 -0.6984088,-0.007 -0.088426,-0.21226 -0.117173,-0.22933 -0.3800629,-0.22613 l -0.2843725,0.003 0.326399,0.29973 c 0.8753469,0.80534 2.1831012,1.12363 3.3697815,0.82027 z M 2.549209,295.34276 c 0,-0.096 -0.04384,-0.16747 -0.115701,-0.18133 -0.084266,-0.0213 -0.115701,0.0213 -0.115701,0.13653 0,0.0853 0.02048,0.1792 0.04544,0.2048 0.08544,0.0853 0.1859515,-0.001 0.1859515,-0.16 z m 3.3267513,-0.0213 c 0.016748,-0.1408 -0.00647,-0.17707 -0.1157009,-0.17707 -0.099093,0 -0.136629,0.0427 -0.136629,0.15467 0,0.29973 0.217162,0.31999 0.2523299,0.0213 z M 1.446859,294.24207 c 0.038187,-0.768 0.074986,-1.02933 0.1640956,-1.16533 l 0.1148477,-0.17493 h 2.4063401 2.4063399 l 0.1313169,0.21439 c 0.1911247,0.31254 0.3417163,0.87894 0.3460896,1.30133 0.00201,0.20267 0.026133,0.48747 0.053333,0.63254 l 0.049493,0.26453 0.275114,-0.42027 c 1.0473891,-1.59946 0.8486161,-3.49844 -0.5064094,-4.83796 -1.1862461,-1.17279 -2.8485988,-1.44543 -4.357141,-0.71466 -0.6183982,0.29973 -1.4260578,1.11221 -1.72412101,1.73482 -0.5178439,1.0816 -0.53211589,2.19637 -0.041707,3.25962 0.21212741,0.45973 0.55211581,0.97706 0.60667571,0.92266 0.014613,-0.0107 0.048747,-0.47253 0.07584,-1.01653 z m 0.4674867,-2.15136 c -0.6439555,-0.42879 -0.6484035,-1.5761 -0.00778,-2.00778 0.4407028,-0.2976 1.0572878,-0.24853 1.4178842,0.11307 0.2547937,0.25493 0.2389113,0.5472 -0.031467,0.57813 -0.1000529,0.0107 -0.1818235,-0.007 -0.1818235,-0.0427 0,-0.032 -0.07296,-0.13973 -0.1621327,-0.23573 -0.1934181,-0.20906 -0.5414172,-0.23573 -0.7594966,-0.064 -0.1933222,0.1568 -0.2909219,0.61333 -0.2018021,0.944 0.079466,0.29547 0.2761805,0.4608 0.5474331,0.4608 0.263178,0 0.4123615,-0.096 0.5068574,-0.3232 0.1452901,-0.35093 0.4673267,-0.3392 0.463732,0.0213 -0.00433,0.42773 -0.381055,0.70293 -0.9633361,0.70293 -0.3093325,2.2e-4 -0.4558601,-0.032 -0.6281049,-0.14933 z m 2.0608125,0.0213 c -0.040747,-0.0747 -0.070613,-0.5376 -0.070613,-1.09013 0,-0.78293 0.018987,-0.97707 0.1038929,-1.0624 0.1255678,-0.12587 0.1679358,-0.128 0.3149434,-0.0213 0.100693,0.0747 0.1114663,0.20586 0.095253,1.17354 l -0.01824,1.09056 -0.1773753,0.0213 c -0.1233811,0.0107 -0.1988582,-0.0213 -0.2479355,-0.11093 z m 1.4781549,-0.1088 c -0.2259621,-0.5408 -0.6892036,-1.8289 -0.6892036,-1.91637 0,-0.11947 0.2245862,-0.24213 0.3536098,-0.192 0.0544,0.0213 0.2269114,0.40427 0.3842655,0.8544 0.157045,0.44906 0.2997538,0.80213 0.3171298,0.78506 0.017386,-0.0213 0.1530556,-0.3776 0.3015033,-0.8 0.2863244,-0.81493 0.414836,-0.98559 0.6011288,-0.79999 0.1469438,0.1472 0.0992,0.3552 -0.3237217,1.40959 l -0.3446391,0.85973 -0.2495991,0.0213 c -0.2319782,0.0213 -0.2567247,0.003 -0.3504737,-0.2208 z m -3.466095,1.52639 c 0,-0.24746 -0.021013,-0.2976 -0.1245224,-0.2976 -0.1268583,0 -0.2034554,0.1664 -0.2051621,0.44587 -7.488e-4,0.1152 0.0368,0.14933 0.1643836,0.14933 0.1518182,0 0.1652902,-0.0213 0.1653009,-0.2976 z m 0.793395,0 c 0,-0.29546 -0.00124,-0.2976 -0.2314126,-0.2976 -0.230186,0 -0.231402,10e-4 -0.231402,0.2976 0,0.29654 0.00124,0.2976 0.231402,0.2976 0.230186,0 0.2314126,-0.001 0.2314126,-0.2976 z m 0.8595178,0 V 293.232 H 3.3756621 3.1111936 v 0.2976 0.2976 h 0.2644685 0.2644688 z m 0.7933952,0 V 293.232 H 4.1690573 3.9045888 v 0.2976 0.2976 h 0.2644685 0.2644688 z m 0.8595175,0 V 293.232 H 5.0285825 4.7641171 v 0.2976 0.2976 h 0.2644685 0.2644685 z m 0.7933952,0 V 293.232 H 5.82197 5.5575015 v 0.2976 0.2976 H 5.82197 6.0864388 Z m 0.6217261,0.24214 c 0.018987,-0.032 0.00446,-0.16427 -0.032213,-0.2976 -0.047786,-0.1728 -0.1034664,-0.24214 -0.1958716,-0.24214 -0.1089596,0 -0.1291301,0.0427 -0.1291301,0.2976 0,0.27094 0.014187,0.2976 0.161386,0.2976 0.088746,0 0.1769063,-0.0213 0.1958716,-0.0533 z"
       id="path4498"
       inkscape:connector-curvature="0" />
  </g>
</svg>
